<svg width="120" height="139" viewBox="0 0 120 139" fill="none" xmlns="http://www.w3.org/2000/svg">
<path d="M79.1867 0.5C96.3151 0.5 110.187 14.1628 110.187 31C110.187 47.8372 96.3151 61.5 79.1867 61.5C62.0583 61.5 48.1867 47.8372 48.1867 31C48.1867 14.1628 62.0583 0.5 79.1867 0.5Z" fill="#FFCC00" stroke="black"/>
<rect x="88.8342" y="114.796" width="11.042" height="14.8447" fill="#603800" stroke="black"/>
<mask id="path-3-inside-1_14_310" fill="white">
<path d="M92.7877 47.8125C93.9424 45.8125 96.8292 45.8125 97.9839 47.8125L111.45 71.1357C112.604 73.1355 111.16 75.6355 108.851 75.6357H104.216L115.798 95.6953C116.952 97.6951 115.509 100.195 113.2 100.195H109.539L119.185 114.878C120.495 116.873 119.064 119.525 116.677 119.525H73.4595C71.0728 119.525 69.6423 116.873 70.9527 114.878L80.5992 100.195H76.938C74.6289 100.195 73.1853 97.6952 74.3394 95.6953L85.9205 75.6357H81.9205C79.6112 75.6357 78.1675 73.1357 79.3218 71.1357L92.7877 47.8125Z"/>
</mask>
<g filter="url(#filter0_i_14_310)">
<path d="M92.7877 47.8125C93.9424 45.8125 96.8292 45.8125 97.9839 47.8125L111.45 71.1357C112.604 73.1355 111.16 75.6355 108.851 75.6357H104.216L115.798 95.6953C116.952 97.6951 115.509 100.195 113.2 100.195H109.539L119.185 114.878C120.495 116.873 119.064 119.525 116.677 119.525H73.4595C71.0728 119.525 69.6423 116.873 70.9527 114.878L80.5992 100.195H76.938C74.6289 100.195 73.1853 97.6952 74.3394 95.6953L85.9205 75.6357H81.9205C79.6112 75.6357 78.1675 73.1357 79.3218 71.1357L92.7877 47.8125Z" fill="#315D00"/>
</g>
<path d="M92.7877 47.8125L93.6537 48.3125L93.6537 48.3125L92.7877 47.8125ZM97.9839 47.8125L97.1179 48.3125L97.1179 48.3125L97.9839 47.8125ZM111.45 71.1357L112.316 70.636L112.316 70.6357L111.45 71.1357ZM108.851 75.6357L108.851 76.6357L108.851 76.6357L108.851 75.6357ZM104.216 75.6357V74.6357H102.484L103.35 76.1358L104.216 75.6357ZM115.798 95.6953L116.665 95.1956L116.664 95.1953L115.798 95.6953ZM113.2 100.195L113.2 101.195L113.2 101.195L113.2 100.195ZM109.539 100.195V99.1953H107.685L108.703 100.744L109.539 100.195ZM119.185 114.878L120.021 114.329L120.021 114.329L119.185 114.878ZM116.677 119.525L116.677 120.525L116.677 120.525L116.677 119.525ZM73.4595 119.525L73.4594 120.525H73.4595V119.525ZM70.9527 114.878L70.1169 114.329L70.1169 114.329L70.9527 114.878ZM80.5992 100.195L81.4349 100.744L82.4527 99.1953H80.5992V100.195ZM74.3394 95.6953L73.4734 95.1953L73.4733 95.1955L74.3394 95.6953ZM85.9205 75.6357L86.7865 76.1357L87.6525 74.6357H85.9205V75.6357ZM79.3218 71.1357L78.4558 70.6357L78.4558 70.6358L79.3218 71.1357ZM92.7877 47.8125L93.6537 48.3125C94.4235 46.9792 96.3481 46.9792 97.1179 48.3125L97.9839 47.8125L98.85 47.3125C97.3104 44.6458 93.4612 44.6458 91.9216 47.3125L92.7877 47.8125ZM97.9839 47.8125L97.1179 48.3125L110.584 71.6358L111.45 71.1357L112.316 70.6357L98.85 47.3125L97.9839 47.8125ZM111.45 71.1357L110.584 71.6355C111.353 72.9687 110.39 74.6356 108.851 74.6357L108.851 75.6357L108.851 76.6357C111.93 76.6354 113.855 73.3024 112.316 70.636L111.45 71.1357ZM108.851 75.6357V74.6357H104.216V75.6357V76.6357H108.851V75.6357ZM104.216 75.6357L103.35 76.1358L114.932 96.1953L115.798 95.6953L116.664 95.1953L105.082 75.1357L104.216 75.6357ZM115.798 95.6953L114.932 96.195C115.701 97.5283 114.739 99.1952 113.2 99.1953L113.2 100.195L113.2 101.195C116.278 101.195 118.203 97.8619 116.665 95.1956L115.798 95.6953ZM113.2 100.195V99.1953H109.539V100.195V101.195H113.2V100.195ZM109.539 100.195L108.703 100.744L118.349 115.427L119.185 114.878L120.021 114.329L110.374 99.6462L109.539 100.195ZM119.185 114.878L118.349 115.427C119.223 116.757 118.268 118.525 116.677 118.525L116.677 119.525L116.677 120.525C119.859 120.525 121.768 116.989 120.021 114.329L119.185 114.878ZM116.677 119.525V118.525H73.4595V119.525V120.525H116.677V119.525ZM73.4595 119.525L73.4596 118.525C71.8687 118.525 70.9147 116.757 71.7885 115.427L70.9527 114.878L70.1169 114.329C68.3698 116.988 70.2769 120.525 73.4594 120.525L73.4595 119.525ZM70.9527 114.878L71.7885 115.427L81.4349 100.744L80.5992 100.195L79.7634 99.6462L70.1169 114.329L70.9527 114.878ZM80.5992 100.195V99.1953H76.938V100.195V101.195H80.5992V100.195ZM76.938 100.195V99.1953C75.3986 99.1953 74.4361 97.5284 75.2055 96.1951L74.3394 95.6953L73.4733 95.1955C71.9345 97.862 73.8591 101.195 76.938 101.195V100.195ZM74.3394 95.6953L75.2054 96.1953L86.7865 76.1357L85.9205 75.6357L85.0544 75.1358L73.4734 95.1953L74.3394 95.6953ZM85.9205 75.6357V74.6357H81.9205V75.6357V76.6357H85.9205V75.6357ZM81.9205 75.6357V74.6357C80.3808 74.6357 79.4184 72.9688 80.1879 71.6357L79.3218 71.1357L78.4558 70.6358C76.9165 73.3026 78.8415 76.6357 81.9205 76.6357V75.6357ZM79.3218 71.1357L80.1879 71.6358L93.6537 48.3125L92.7877 47.8125L91.9216 47.3125L78.4558 70.6357L79.3218 71.1357Z" fill="black" mask="url(#path-3-inside-1_14_310)"/>
<rect x="36.1867" y="114.5" width="18" height="24" fill="#603800" stroke="black"/>
<g filter="url(#filter1_d_14_310)">
<mask id="path-6-inside-2_14_310" fill="white">
<path d="M42.2145 6.50032C43.3692 4.50032 46.2561 4.50032 47.4108 6.50032L71.6588 48.5003C72.8131 50.5002 71.3703 53.0001 69.0612 53.0003H58.7467L78.5201 87.2503C79.6744 89.2501 78.2315 91.75 75.9225 91.7503H67.1432L84.1276 117.603C85.4377 119.598 84.0064 122.25 81.6198 122.25H7.00452C4.61763 122.25 3.1872 119.598 4.49768 117.603L21.4821 91.7503H12.7028C10.3935 91.7503 8.94983 89.2503 10.1041 87.2503L29.8785 53.0003H20.5631C18.2541 53 16.8112 50.5001 17.9655 48.5003L42.2145 6.50032Z"/>
</mask>
<g filter="url(#filter2_i_14_310)">
<path d="M42.2145 6.50032C43.3692 4.50032 46.2561 4.50032 47.4108 6.50032L71.6588 48.5003C72.8131 50.5002 71.3703 53.0001 69.0612 53.0003H58.7467L78.5201 87.2503C79.6744 89.2501 78.2315 91.75 75.9225 91.7503H67.1432L84.1276 117.603C85.4377 119.598 84.0064 122.25 81.6198 122.25H7.00452C4.61763 122.25 3.1872 119.598 4.49768 117.603L21.4821 91.7503H12.7028C10.3935 91.7503 8.94983 89.2503 10.1041 87.2503L29.8785 53.0003H20.5631C18.2541 53 16.8112 50.5001 17.9655 48.5003L42.2145 6.50032Z" fill="#315D00"/>
</g>
<path d="M42.2145 6.50032L43.0805 7.00033L43.0805 7.00032L42.2145 6.50032ZM47.4108 6.50032L48.2768 6.00033L48.2768 6.00032L47.4108 6.50032ZM71.6588 48.5003L72.5249 48.0004L72.5248 48.0003L71.6588 48.5003ZM69.0612 53.0003L69.0612 54.0003L69.0613 54.0003L69.0612 53.0003ZM58.7467 53.0003V52.0003H57.0147L57.8807 53.5003L58.7467 53.0003ZM78.5201 87.2503L79.3862 86.7504L79.3862 86.7503L78.5201 87.2503ZM75.9225 91.7503L75.9225 92.7503L75.9226 92.7503L75.9225 91.7503ZM67.1432 91.7503V90.7503H65.2897L66.3074 92.2994L67.1432 91.7503ZM84.1276 117.603L84.9634 117.054L84.9633 117.054L84.1276 117.603ZM81.6198 122.25L81.6198 123.25L81.6198 123.25L81.6198 122.25ZM7.00452 122.25L7.00451 123.25H7.00452V122.25ZM4.49768 117.603L3.66191 117.054L3.66189 117.054L4.49768 117.603ZM21.4821 91.7503L22.3178 92.2994L23.3355 90.7503H21.4821V91.7503ZM10.1041 87.2503L9.2381 86.7503L9.23803 86.7504L10.1041 87.2503ZM29.8785 53.0003L30.7446 53.5003L31.6106 52.0003H29.8785V53.0003ZM20.5631 53.0003L20.563 54.0003H20.5631V53.0003ZM17.9655 48.5003L17.0994 48.0003L17.0994 48.0004L17.9655 48.5003ZM42.2145 6.50032L43.0805 7.00032C43.8503 5.66699 45.7749 5.66699 46.5447 7.00032L47.4108 6.50032L48.2768 6.00032C46.7372 3.33365 42.8881 3.33365 41.3485 6.00032L42.2145 6.50032ZM47.4108 6.50032L46.5447 7.00031L70.7928 49.0003L71.6588 48.5003L72.5248 48.0003L48.2768 6.00033L47.4108 6.50032ZM71.6588 48.5003L70.7927 49.0002C71.5624 50.3337 70.6002 52.0002 69.0611 52.0003L69.0612 53.0003L69.0613 54.0003C72.1403 54 74.0638 50.6667 72.5249 48.0004L71.6588 48.5003ZM69.0612 53.0003V52.0003H58.7467V53.0003V54.0003H69.0612V53.0003ZM58.7467 53.0003L57.8807 53.5003L77.6541 87.7503L78.5201 87.2503L79.3862 86.7503L59.6127 52.5003L58.7467 53.0003ZM78.5201 87.2503L77.654 87.7502C78.4236 89.0836 77.4614 90.7501 75.9224 90.7503L75.9225 91.7503L75.9226 92.7503C79.0016 92.7499 80.9251 89.4167 79.3862 86.7504L78.5201 87.2503ZM75.9225 91.7503V90.7503H67.1432V91.7503V92.7503H75.9225V91.7503ZM67.1432 91.7503L66.3074 92.2994L83.2918 118.152L84.1276 117.603L84.9633 117.054L67.979 91.2012L67.1432 91.7503ZM84.1276 117.603L83.2917 118.152C84.1651 119.482 83.2109 121.25 81.6197 121.25L81.6198 122.25L81.6198 123.25C84.802 123.25 86.7104 119.714 84.9634 117.054L84.1276 117.603ZM81.6198 122.25V121.25H7.00452V122.25V123.25H81.6198V122.25ZM7.00452 122.25L7.00452 121.25C5.4137 121.25 4.45959 119.482 5.33348 118.152L4.49768 117.603L3.66189 117.054C1.91482 119.713 3.82156 123.25 7.00451 123.25L7.00452 122.25ZM4.49768 117.603L5.33345 118.152L22.3178 92.2994L21.4821 91.7503L20.6463 91.2012L3.66191 117.054L4.49768 117.603ZM21.4821 91.7503V90.7503H12.7028V91.7503V92.7503H21.4821V91.7503ZM12.7028 91.7503V90.7503C11.1632 90.7503 10.2007 89.0834 10.9702 87.7502L10.1041 87.2503L9.23803 86.7504C7.69893 89.4171 9.62382 92.7503 12.7028 92.7503V91.7503ZM10.1041 87.2503L10.9701 87.7503L30.7446 53.5003L29.8785 53.0003L29.0125 52.5003L9.2381 86.7503L10.1041 87.2503ZM29.8785 53.0003V52.0003H20.5631V53.0003V54.0003H29.8785V53.0003ZM20.5631 53.0003L20.5633 52.0003C19.0241 52.0001 18.0619 50.3336 18.8315 49.0002L17.9655 48.5003L17.0994 48.0004C15.5604 50.6667 17.4841 53.9999 20.563 54.0003L20.5631 53.0003ZM17.9655 48.5003L18.8315 49.0003L43.0805 7.00033L42.2145 6.50032L41.3485 6.00032L17.0994 48.0003L17.9655 48.5003Z" fill="black" mask="url(#path-6-inside-2_14_310)"/>
</g>
<defs>
<filter id="filter0_i_14_310" x="70.4551" y="46.3125" width="52.2274" height="74.2129" filterUnits="userSpaceOnUse" color-interpolation-filters="sRGB">
<feFlood flood-opacity="0" result="BackgroundImageFix"/>
<feBlend mode="normal" in="SourceGraphic" in2="BackgroundImageFix" result="shape"/>
<feColorMatrix in="SourceAlpha" type="matrix" values="0 0 0 0 0 0 0 0 0 0 0 0 0 0 0 0 0 0 127 0" result="hardAlpha"/>
<feOffset dx="3" dy="1"/>
<feGaussianBlur stdDeviation="1.5"/>
<feComposite in2="hardAlpha" operator="arithmetic" k2="-1" k3="1"/>
<feColorMatrix type="matrix" values="0 0 0 0 1 0 0 0 0 0.8 0 0 0 0 0 0 0 0 1 0"/>
<feBlend mode="normal" in2="shape" result="effect1_innerShadow_14_310"/>
</filter>
<filter id="filter1_d_14_310" x="0" y="5.00032" width="88.6249" height="125.25" filterUnits="userSpaceOnUse" color-interpolation-filters="sRGB">
<feFlood flood-opacity="0" result="BackgroundImageFix"/>
<feColorMatrix in="SourceAlpha" type="matrix" values="0 0 0 0 0 0 0 0 0 0 0 0 0 0 0 0 0 0 127 0" result="hardAlpha"/>
<feOffset dy="4"/>
<feGaussianBlur stdDeviation="2"/>
<feComposite in2="hardAlpha" operator="out"/>
<feColorMatrix type="matrix" values="0 0 0 0 0 0 0 0 0 0 0 0 0 0 0 0 0 0 0.25 0"/>
<feBlend mode="normal" in2="BackgroundImageFix" result="effect1_dropShadow_14_310"/>
<feBlend mode="normal" in="SourceGraphic" in2="effect1_dropShadow_14_310" result="shape"/>
</filter>
<filter id="filter2_i_14_310" x="1" y="5.00032" width="83.6249" height="118.25" filterUnits="userSpaceOnUse" color-interpolation-filters="sRGB">
<feFlood flood-opacity="0" result="BackgroundImageFix"/>
<feBlend mode="normal" in="SourceGraphic" in2="BackgroundImageFix" result="shape"/>
<feColorMatrix in="SourceAlpha" type="matrix" values="0 0 0 0 0 0 0 0 0 0 0 0 0 0 0 0 0 0 127 0" result="hardAlpha"/>
<feOffset dx="-3" dy="1"/>
<feGaussianBlur stdDeviation="2"/>
<feComposite in2="hardAlpha" operator="arithmetic" k2="-1" k3="1"/>
<feColorMatrix type="matrix" values="0 0 0 0 1 0 0 0 0 0.8 0 0 0 0 0 0 0 0 1 0"/>
<feBlend mode="normal" in2="shape" result="effect1_innerShadow_14_310"/>
</filter>
</defs>
</svg>
